<svg id="Layer_1" data-name="Layer 1" xmlns="http://www.w3.org/2000/svg" viewBox="0 0 50 48"><defs><style>.cls-1{fill:#2b88d9;fill-rule:evenodd;}</style></defs><title>frontend</title><path class="cls-1" d="M47.62,44.39a1.21,1.21,0,0,1-1.2,1.21H3.58a1.2,1.2,0,0,1-1.2-1.2h0V12H47.62Zm-44-42H46.42a1.2,1.2,0,0,1,1.2,1.2h0v6H2.38v-6h0A1.21,1.21,0,0,1,3.58,2.4ZM50,3.6h0V44.39A3.6,3.6,0,0,1,46.42,48H3.58A3.59,3.59,0,0,1,0,44.39V3.61H0A3.62,3.62,0,0,1,2.38.22,3.49,3.49,0,0,1,3.58,0H46.42A3.59,3.59,0,0,1,50,3.6ZM6,7.2A1.2,1.2,0,1,0,4.76,6,1.19,1.19,0,0,0,6,7.2Zm3.57,0A1.2,1.2,0,1,0,8.33,6,1.19,1.19,0,0,0,9.52,7.2Zm3.58,0A1.2,1.2,0,1,0,11.9,6,1.19,1.19,0,0,0,13.1,7.2ZM35.37,20.75a1.88,1.88,0,0,0-.18-.12,1.17,1.17,0,0,0-1.51.12,1.22,1.22,0,0,0,0,1.7L35.19,24l3.54,3.56L35.19,31.1l-1.51,1.52a1.22,1.22,0,0,0,0,1.7,1.17,1.17,0,0,0,1.51.11,1.74,1.74,0,0,0,.18-.11l5.88-5.94a1.2,1.2,0,0,0,0-1.7Zm-6.89-3.87a1.17,1.17,0,0,0-1.1.15,1.15,1.15,0,0,0-.44.53l-.17.44-4,10.35-3.62,9.33a1.19,1.19,0,0,0,2.22.88h0l1.4-3.62L27.38,23l1.78-4.57a1.35,1.35,0,0,0,.07-.44,1.2,1.2,0,0,0-.75-1.12Zm-12,5.57a1.2,1.2,0,0,0,0-1.7,1.18,1.18,0,0,0-1.67,0h0L13.1,22.44,8.88,26.68a1.2,1.2,0,0,0,0,1.7l4.22,4.25,1.67,1.69a1.18,1.18,0,0,0,1.67,0h0a1.2,1.2,0,0,0,0-1.7L13.1,29.24l-1.69-1.71,1.69-1.7,3.35-3.38Z"/></svg>