<svg id="Layer_1" data-name="Layer 1" xmlns="http://www.w3.org/2000/svg" viewBox="0 0 1341.2 546.5"><defs><style>.cls-1{fill:#777;}.cls-2{fill:#fefdfe;}.cls-3{fill:#fefefe;}.cls-4{fill:#fcfbfe;}.cls-5{fill:#fdfdfe;}.cls-6{fill:#f9f5fe;}</style></defs><title>hero</title><path class="cls-1" d="M4.9,509c.5-1.6.9-3.2,1.4-4.8,4.3-14.6,17.4-24.3,33-24.3H167.8c4.5,0,6.5,2,6.5,6.6v3.8a6.4,6.4,0,0,1-5.7,6.4c-2.3.4-4.6.6-6.9,1.1-9.2,1.9-13.9,7.5-13.9,16.1s4.7,14.1,13.9,16.1c2.3.5,4.6.7,6.9,1.1,4.7.8,6.3,4,5.7,11.5-.3,3.5-2.5,5.2-6.8,5.2-42.3,0-84.6-.2-126.9.1-19,.2-33.2-13.2-35.3-28.6,0-.2-.3-.4-.5-.6C4.9,515.5,4.9,512.2,4.9,509Zm138.7,0H38.6a8.07,8.07,0,0,1-2.7-.1c-.8-.3-1.8-1.3-1.8-1.9a3.81,3.81,0,0,1,1.8-2.2c.7-.4,1.8-.1,2.6-.1H142.6a4.49,4.49,0,0,0,2.9-.7c2.1-2.3,4-4.8,6.1-7.3H39.2c-10.3,0-18.2,7.4-18.2,17.2s7.8,17.2,18.1,17.2H149.6c.7,0,1.5-.1,2-.1-1.9-2.1-4-4-5.4-6.3a4,4,0,0,0-4-2.2q-51.9.15-103.8,0c-1.8,0-4.3.7-4.4-2.1s2.5-2.2,4.3-2.2H143.4C143.6,515,143.6,512.2,143.6,509Zm-41.5,34.4h65.1c.9,0,2.6-.4,2.6-.7a19,19,0,0,0-.2-6.3c-.2-.6-2.4-1-3.7-1-31-.1-62,0-93.1,0-11.7,0-23.3.1-35,0a21.37,21.37,0,0,1-21-21.2c-.1-12.2,9.5-21.7,22.1-21.8H166.4c3.6,0,3.7-.1,3.7-4.5,0-3.6,0-3.6-3.5-3.6H71.1c-11.2,0-22.4-.2-33.6.1-15,.3-27.7,13.2-28.2,28.2-.5,17.1,12.5,30.8,29.6,30.9C59.9,543.5,81,543.4,102.1,543.4Z" transform="translate(-4.8 -1.8)"/><path class="cls-1" d="M1227.2,548.3c-4.9-1.9-8.8-4.8-9.9-10.3a19.83,19.83,0,0,1-.3-3.5V446.3c0-4.4,1.4-5.7,5.8-5.7h31.4a3.45,3.45,0,0,0,3.4-1.8,12.72,12.72,0,0,1,22,.1,3.09,3.09,0,0,0,3.2,1.7c9.5-.1,19,0,28.5,0,4.2,0,5.7,1.4,5.7,5.6v14.1c9.6,1.9,17.3,6.5,22.8,14.4a34,34,0,0,1,6.2,20.5c-.3,16.2-10.5,28.1-29.2,33.5,1,8.7-.5,16.2-10.1,19.5Q1267.1,548.35,1227.2,548.3Zm-5.9-103.2v89c0,6.6,3.4,9.9,10,9.9h71.3c6.9,0,10.2-3.3,10.2-10.2V445.2h-31.7v24.5h7.1c4.3.1,6.9,2.7,6.9,6.9.1,8.2,0,16.5,0,24.7,0,4.4-2.6,7-7,7.1h-18c-4.6,0-7.2-2.6-7.2-7.1V476.8c0-4.6,2.6-7.1,7.3-7.1h6.2V445C1257.8,445.1,1239.8,445.1,1221.3,445.1Zm45.7,43.7c0,4,.1,8.1,0,12.1,0,2.3.8,3.3,3.2,3.3,5.8-.1,11.7-.1,17.5,0,2.2,0,3.1-.9,3.1-3.1V477.2c0-2.3-1.1-3.2-3.3-3.1-5.7.1-11.5.1-17.2,0-2.3,0-3.2,1-3.2,3.2C1267.1,481.1,1267,485,1267,488.8Zm50-23.8a22.48,22.48,0,0,1,0,2.6c-.6,4.2-.1,7.8,5,8.7.2,0,.5.3.7.4,7.1,4.7,10.7,11.4,9.8,19.8s-5.5,14.4-13.5,17.6c-.7.3-1.9.9-1.9,1.5-.2,2.8-.1,5.6-.1,8.5a30,30,0,0,0,0-59.1Zm.2,14v30.9c6.1-1.6,11-8,11.2-14.8A16.26,16.26,0,0,0,1317.2,479Zm-55.3-38.5h13.5C1271.4,435.7,1265.6,435.8,1261.9,440.5Z" transform="translate(-4.8 -1.8)"/><path class="cls-1" d="M1060,520.8h28.9c3.7,0,4.4.7,4.4,4.3,0,3.1.1,6.3,0,9.4a13.48,13.48,0,0,1-13.1,13.1H650.9c-7.7,0-13.2-3.7-14.4-10.6-.8-4.5-.5-9.3-.4-13.9.1-2.2,2-2.4,3.8-2.4h28.9c-1.1-1.5-2.4-2.7-2.9-4.1-1.1-3.1-2.4-6.3-2.4-9.5-.3-13.8-.1-27.6-.1-41.4v-3H584.7c1.7,21.7,3.3,43.1,5,64.9h13.5c3.3,0,6.6-.1,10,0a9.86,9.86,0,0,1,9.8,9.7c.1,2.2,0,4.5,0,6.7,0,2.4-1.2,3.5-3.5,3.4H467.3c-4.8,0-5.1-.4-5.1-5.3v-4.6c.2-5.8,4.3-10,10.1-10.1,7.6-.1,15.2,0,23.2,0,1.7-21.6,3.3-43.2,5-64.9H322.8v66.4c0,11.2-7.2,18.4-18.3,18.4H230.3c-11.1,0-18.3-7.2-18.3-18.4V421.8c-26.8,19-55.3,23.5-85.6,11-21.6-8.9-36.8-24.7-45.5-46.3-17.8-44.3,4-93.8,48.9-110.9,46.9-17.8,99.5,9.4,112,58.5H263V87.3c0-9.4,5.3-16.2,14.2-17.9a22.71,22.71,0,0,1,4.5-.3h92.6v-49c0-11.1,7.2-18.3,18.4-18.3h216c11.3,0,18.5,7.1,18.5,18.5V69.1H802.3c12.1,0,19,6.9,19,19V252.9H860V189.3c0-11.3,7.2-18.4,18.5-18.4h262c11.5,0,18.6,7.1,18.6,18.6v219c0,11.4-7.1,18.5-18.4,18.5h-75.2v3.2c0,24.1-.1,48.2,0,72.4C1065.9,509.3,1065.7,515.6,1060,520.8ZM322.9,382.9H663.4V272.2c0-11.7,7-18.7,18.8-18.7H782.9V112.7c0-4.1-1.5-5.6-5.7-5.6H627.5V267.8c0,11.9-7,18.9-18.8,18.9H393.5c-11.9,0-18.8-7-18.8-18.9V107H307.8c-4.9,0-6.3,1.3-6.3,6.1V334.5a20.55,20.55,0,0,0,2.5,0c10.7-.9,19.7,7.7,19.1,19.3C322.5,363.5,322.9,373.1,322.9,382.9ZM378.8,37.8V268.3c0,8.8,5.4,14.2,14.3,14.2H608.8c8.9,0,14.3-5.3,14.3-14.2V37.8ZM685.7,283.1V495.9h357.5V427.2h-164c-11.9,0-18.9-7-18.9-18.9V283.1Zm178.9-76.3V408.7c0,8.9,5.3,14.2,14.2,14.2h262c9,0,14.3-5.3,14.3-14.4V206.7C1058.2,206.8,961.6,206.8,864.6,206.8ZM663.2,458.3V387.6H323v70.7ZM159.7,435.8a80.4,80.4,0,1,0-80.5-80.1A80.6,80.6,0,0,0,159.7,435.8Zm888-8.5v66.8c0,5.2-1.1,6.3-6.3,6.3H687.7c-5.3,0-6.5-1.2-6.5-6.5V285.2c0-5.3,1.1-6.4,6.5-6.4H860.2v-21H681.5c-8.3,0-13.7,5.5-13.7,13.9V507.1c0,8.3,5.5,13.8,13.8,13.8h366.1c8.5,0,13.9-5.5,13.9-14V427.4C1056.7,427.3,1052.4,427.3,1047.7,427.3Zm-803.5-65a6.15,6.15,0,0,0-.3,1.1c-2.1,21.1-10.9,38.9-26.1,53.6a5.48,5.48,0,0,0-1.4,3.5c-.1,29.7-.1,59.3-.1,89,0,.9.1,1.7.1,2.6H318.3V362.3Zm573.1-109V87.9c0-8.8-5.4-14.2-14.3-14.2H627.5v29H776.6c7.5,0,10.6,3.1,10.6,10.6V253.1C797.3,253.3,807.1,253.3,817.3,253.3ZM374.4,73.8H281.7c-8.9,0-14.3,5.3-14.3,14.2V334.6H297v-221c0-7.6,3-10.7,10.5-10.7h66.8C374.4,93,374.4,83.6,374.4,73.8Zm714.5,451.3H898a3.09,3.09,0,0,0-3.2,1.7c-3.3,5.5-8.2,8.9-14.6,9.1-10.2.3-20.4.3-30.6.2a18.07,18.07,0,0,1-15.7-8.8,3.89,3.89,0,0,0-4-2.2q-93.3.15-186.6,0h-3c0,3.5-.2,6.6,0,9.8.3,5.3,4.5,8.5,10.7,8.5h429a9.07,9.07,0,0,0,8.9-9C1089,531.5,1088.9,528.5,1088.9,525.1Zm-224.2-323h290.5V190.4c0-9.8-5.1-15-14.8-15H877.3a12.88,12.88,0,0,0-12.5,11.8C864.4,192.1,864.7,197.1,864.7,202.1ZM623.1,33.3V19.6A13,13,0,0,0,609.9,6.5H392.1c-6.6,0-12.1,4.2-12.9,10.7-.7,5.3-.1,10.7-.1,16.1ZM585.4,527.7c-1.7-21.8-3.3-43.3-5-64.8H504.9c-1.7,21.7-3.3,43.2-5,64.8ZM216.3,516.8v13.6a12.91,12.91,0,0,0,13,13h76.4a12.5,12.5,0,0,0,12.6-11c.5-5.1.1-10.3.1-15.7C284.4,516.8,250.6,516.8,216.3,516.8Zm402.4,26.6c0-.8.1-1.3.1-1.8.2-8.1-1.1-9.4-9.2-9.4h-135a15.06,15.06,0,0,0-3,.1c-2.6.3-4.5,1.8-4.9,4.3-.4,2.2-.1,4.5-.1,6.9C517.4,543.4,567.9,543.4,618.7,543.4ZM318.6,357.7v-4c0-9.6-5.2-14.7-14.8-14.7h-61c.4,2.6.8,4.7,1.2,7h45.1a6.28,6.28,0,0,1,2.4.1c.7.4,1.7,1.3,1.7,2s-.9,1.6-1.7,2a6.28,6.28,0,0,1-2.4.1H244.5v7.4C269.2,357.7,293.7,357.7,318.6,357.7ZM837.7,525.5c2.6,3.7,5.9,5.9,10,6.1,7.9.3,15.8.3,23.6.3,3.2,0,6.5,0,9.6-.3a13.49,13.49,0,0,0,9.7-6.1Z" transform="translate(-4.8 -1.8)"/><path class="cls-1" d="M1192,547.6h-68.7c-.2-13,4.6-23.4,15.3-30.5,11.8-7.8,24.3-8.1,36.6-1.1C1186.7,522.6,1193.4,535.4,1192,547.6Zm-37.6-31.9c-16.2,1.3-26.5,16.3-26.4,27.6h59.6c-.6-14.4-12.2-26.1-26.6-27.6-1.3,1.4-2.3,2.4-3.3,3.4C1156.9,518.2,1155.9,517.2,1154.4,515.7Z" transform="translate(-4.8 -1.8)"/><path class="cls-2" d="M1221.3,445.1h54.8v24.7h-6.2c-4.6.1-7.2,2.5-7.3,7.1v24.5c0,4.6,2.6,7.1,7.2,7.1h18c4.4,0,7-2.6,7-7.1V476.7c0-4.3-2.6-6.8-6.9-6.9h-7.1V445.3h31.7v88.6c0,6.9-3.3,10.2-10.2,10.2H1231c-6.6,0-10-3.3-10-9.9V447.9A8.92,8.92,0,0,0,1221.3,445.1Z" transform="translate(-4.8 -1.8)"/><path class="cls-3" d="M1267,488.8c0-3.9.1-7.7,0-11.6,0-2.3.9-3.3,3.2-3.2,5.7.1,11.5.1,17.2,0,2.2,0,3.3.8,3.3,3.1-.1,8,0,16,0,23.9,0,2.1-.9,3.1-3.1,3.1-5.8,0-11.7-.1-17.5,0-2.3,0-3.2-1-3.2-3.3C1267.1,496.9,1267,492.8,1267,488.8Z" transform="translate(-4.8 -1.8)"/><path class="cls-4" d="M1317,465a30,30,0,0,1,.1,59.1c0-2.9-.1-5.7.1-8.5,0-.5,1.2-1.2,1.9-1.5,7.9-3.2,12.6-9.2,13.5-17.6s-2.7-15.1-9.8-19.8c-.2-.1-.4-.4-.7-.4-5.1-.9-5.5-4.5-5-8.7C1317.1,466.7,1317,465.9,1317,465Z" transform="translate(-4.8 -1.8)"/><path class="cls-5" d="M1317.2,479a16.34,16.34,0,0,1,11.2,16.1c-.2,6.8-5,13.3-11.2,14.8Z" transform="translate(-4.8 -1.8)"/><path class="cls-6" d="M1261.9,440.5c3.7-4.7,9.5-4.7,13.5,0Z" transform="translate(-4.8 -1.8)"/><path class="cls-1" d="M516.8,171.1H486.7c-.5,0-1.2.2-1.6,0-1-.6-2-1.4-2.9-2,.9-.7,1.8-1.5,2.8-2.2.3-.2.9,0,1.3,0H549c1.6,0,3,.3,3,2.2s-1.6,2.1-3.1,2.1h-3C536.2,171.1,526.5,171.1,516.8,171.1Z" transform="translate(-4.8 -1.8)"/><path class="cls-1" d="M457.9,214.2H427.2a6.38,6.38,0,0,1-2.4-.1c-.8-.4-1.7-1.3-1.7-2s.9-1.6,1.6-2,1.6-.1,2.4-.1h61.6c.5,0,1.2-.2,1.6,0a26.22,26.22,0,0,1,2.5,2.2c-.8.7-1.5,1.8-2.4,1.9a50,50,0,0,1-6.7.1Z" transform="translate(-4.8 -1.8)"/><path class="cls-1" d="M498.3,106.6H470.1c-.8,0-1.8.2-2.4-.2a3.64,3.64,0,0,1-1.6-2.1c-.1-.6.9-1.5,1.5-1.9a4.71,4.71,0,0,1,2.1-.2h57c.4,0,1-.2,1.3,0a22.91,22.91,0,0,1,2.3,2.1c-.8.7-1.4,1.7-2.3,2.1a8,8,0,0,1-2.7.1C516.4,106.6,507.4,106.6,498.3,106.6Z" transform="translate(-4.8 -1.8)"/><path class="cls-1" d="M450.1,166.8H473c1.6,0,3.6-.2,3.7,2.1s-1.8,2.2-3.5,2.2H426.7a4,4,0,0,1-1.1,0,26.22,26.22,0,0,1-2.5-2.2c.9-.7,1.7-1.9,2.6-2,3.7-.2,7.3-.1,11-.1Z" transform="translate(-4.8 -1.8)"/><path class="cls-1" d="M449.6,149.6H426.7c-1.6,0-3.6.2-3.7-2.1s1.8-2.2,3.5-2.2H473a4,4,0,0,1,1.1,0,26.22,26.22,0,0,1,2.5,2.2c-.9.7-1.7,1.9-2.6,2-3.7.2-7.3.1-11,.1Z" transform="translate(-4.8 -1.8)"/><path class="cls-1" d="M529.8,85.1H511.2c-1.6,0-3.3-.2-3.2-2.3.1-1.9,1.6-2.1,3.2-2h37.7c1.6,0,3.1.2,3.1,2.1s-1.5,2.2-3,2.2Z" transform="translate(-4.8 -1.8)"/><path class="cls-1" d="M500.9,149.6H485.4c-1.5,0-3.1-.2-3.2-2.1-.1-2.1,1.6-2.3,3.2-2.3h31.1c1.5,0,3.1.2,3.2,2.1.1,2.1-1.6,2.3-3.2,2.3Z" transform="translate(-4.8 -1.8)"/><path class="cls-1" d="M441.8,102.3h15.3c1.6,0,3.3,0,3.4,2.1s-1.6,2.2-3.3,2.2H426.3c-1.6,0-3.3-.1-3.3-2.2s1.8-2.1,3.4-2.1Z" transform="translate(-4.8 -1.8)"/><path class="cls-1" d="M484.5,192.7H469.4c-1.6,0-3.3,0-3.4-2.1s1.6-2.2,3.3-2.2h30.9c1.6,0,3.3.1,3.3,2.2s-1.8,2.1-3.4,2.1Z" transform="translate(-4.8 -1.8)"/><path class="cls-1" d="M442,188.4h15.1c1.6,0,3.3,0,3.4,2.1s-1.6,2.2-3.3,2.2H426.3c-1.6,0-3.3-.1-3.3-2.2s1.8-2.1,3.4-2.1Z" transform="translate(-4.8 -1.8)"/><path class="cls-1" d="M439.4,231.4H452c1.6,0,3.1.2,3.1,2.1s-1.5,2.2-3,2.2H426c-1.6,0-3.2-.4-2.9-2.2.1-.8,1.8-1.9,2.8-2C430.4,231.3,434.9,231.4,439.4,231.4Z" transform="translate(-4.8 -1.8)"/><path class="cls-1" d="M486.9,80.8h12.6c1.6,0,3.2.5,2.8,2.3a4,4,0,0,1-2.8,2c-8.4.2-16.8.1-25.2.1-1.6,0-3.2-.5-2.8-2.3a4,4,0,0,1,2.8-2C478.5,80.6,482.7,80.8,486.9,80.8Z" transform="translate(-4.8 -1.8)"/><path class="cls-1" d="M436.1,128.1c-3.4,0-6.8.2-10.2-.1a4,4,0,0,1-2.8-2c-.3-1.8,1.3-2.2,2.9-2.2,7,0,13.9-.1,20.9.1a3.74,3.74,0,0,1,2.8,2c.3,1.8-1.3,2.2-2.9,2.2Z" transform="translate(-4.8 -1.8)"/><path class="cls-1" d="M468.7,128.1c-3.5,0-7,.2-10.4-.1-1-.1-2.7-1.1-2.8-2-.3-1.8,1.2-2.3,2.8-2.3,7,0,13.9-.1,20.9.1,1,0,2.7,1.1,2.8,2,.3,1.8-1.2,2.3-2.8,2.3Z" transform="translate(-4.8 -1.8)"/><path class="cls-1" d="M549.3,102.3h10.4c1.6,0,3.2.5,2.8,2.3a4,4,0,0,1-2.8,2c-7,.2-13.9.1-20.9.1-1.6,0-3.2-.5-2.8-2.3a4,4,0,0,1,2.8-2C542.4,102.1,545.9,102.3,549.3,102.3Z" transform="translate(-4.8 -1.8)"/><path class="cls-1" d="M519.7,192.7a70.88,70.88,0,0,1-8-.1c-.9-.1-1.8-1.3-2.7-2,.9-.8,1.8-2.1,2.7-2.2,5.3-.2,10.7-.2,16,0,.9,0,1.8,1.3,2.7,2-.9.8-1.7,2-2.7,2.2A70.88,70.88,0,0,1,519.7,192.7Z" transform="translate(-4.8 -1.8)"/><path class="cls-1" d="M456.6,85.1a50,50,0,0,1-6.7-.1c-1-.2-1.8-1.4-2.7-2.2.9-.7,1.8-1.9,2.7-1.9,4.4-.2,8.9-.2,13.4,0,.9,0,1.8,1.4,2.7,2.2-.9.7-1.7,1.8-2.7,1.9A50.19,50.19,0,0,1,456.6,85.1Z" transform="translate(-4.8 -1.8)"/><path class="cls-1" d="M432.6,80.8a45.58,45.58,0,0,1,6.4.1c1,.2,1.8,1.4,2.7,2.2-.9.7-1.8,1.9-2.7,1.9-4.4.2-8.9.2-13.4,0-.9,0-1.8-1.4-2.7-2.2.9-.7,1.7-1.8,2.7-1.9A54.52,54.52,0,0,1,432.6,80.8Z" transform="translate(-4.8 -1.8)"/><path class="cls-1" d="M495.3,128.1a23.38,23.38,0,0,1-5.3-.1c-.9-.2-1.6-1.4-2.4-2.2.8-.7,1.6-1.9,2.4-1.9a104.61,104.61,0,0,1,11.2,0c.9.1,1.6,1.4,2.4,2.2-.8.7-1.5,1.8-2.4,1.9A38.53,38.53,0,0,1,495.3,128.1Z" transform="translate(-4.8 -1.8)"/><path class="cls-1" d="M411.6,128.1c-1,0-2.1.3-2.9-.1a3.53,3.53,0,0,1-1.8-2.2c-.1-.6,1-1.8,1.7-1.9a18.8,18.8,0,0,1,5.8,0,3,3,0,0,1,1.8,2.1c.1.6-1,1.6-1.8,1.9S412.6,128.1,411.6,128.1Z" transform="translate(-4.8 -1.8)"/><path class="cls-1" d="M411.5,145.3c.9,0,1.9-.3,2.6.1.9.4,1.5,1.4,2.3,2.1-.8.7-1.5,1.8-2.3,2a14,14,0,0,1-5,0c-.9-.2-1.5-1.4-2.2-2.1a13.69,13.69,0,0,1,2.3-2A5.77,5.77,0,0,1,411.5,145.3Z" transform="translate(-4.8 -1.8)"/><path class="cls-1" d="M411.7,106.5c-1,0-2.1.3-2.9-.1s-1.9-1.4-1.8-2.1a2.74,2.74,0,0,1,1.9-2,15.72,15.72,0,0,1,5.3,0c.8.2,1.5,1.4,2.2,2.1a10.65,10.65,0,0,1-2.3,2,3.87,3.87,0,0,1-2.4.1Z" transform="translate(-4.8 -1.8)"/><path class="cls-1" d="M412.2,209.9c1.5.2,4.1-.7,4.1,2.1.1,3-2.6,2.1-4.5,2.2a4.53,4.53,0,0,1-2.6-.1,11.09,11.09,0,0,1-2.4-2,13.15,13.15,0,0,1,2.5-2.2C410,209.6,411,209.9,412.2,209.9Z" transform="translate(-4.8 -1.8)"/><path class="cls-1" d="M411.5,235.7c-.8,0-1.7.3-2.4-.1a9.14,9.14,0,0,1-2.3-2.1c.7-.7,1.4-1.9,2.3-2.1a11.1,11.1,0,0,1,4.8,0c1,.2,1.7,1.3,2.6,2a16.38,16.38,0,0,1-2.5,2.1C413.3,236,412.3,235.7,411.5,235.7Z" transform="translate(-4.8 -1.8)"/><path class="cls-1" d="M411.6,188.4c1,0,2.1-.3,2.9.1s1.8,1.3,1.7,1.9a2.77,2.77,0,0,1-1.8,2.1,15.73,15.73,0,0,1-5.3.1c-.9-.2-1.6-1.3-2.4-1.9a10.41,10.41,0,0,1,2.5-2.2c.7-.4,1.6-.1,2.4-.1Z" transform="translate(-4.8 -1.8)"/><path class="cls-1" d="M411.5,85.1c-.8,0-1.7.3-2.4-.1a9.14,9.14,0,0,1-2.3-2.1c.7-.7,1.4-1.9,2.3-2.1a11.1,11.1,0,0,1,4.8,0c1,.2,1.7,1.3,2.6,2a16.38,16.38,0,0,1-2.5,2.1A5.23,5.23,0,0,1,411.5,85.1Z" transform="translate(-4.8 -1.8)"/><path class="cls-1" d="M411.7,171.1c-.9,0-1.9.3-2.6-.1-.9-.4-1.5-1.4-2.2-2.2.7-.7,1.3-1.8,2.1-1.9a15.72,15.72,0,0,1,5.3,0c.8.2,1.5,1.4,2.2,2.1a9.84,9.84,0,0,1-2.1,2C413.6,171.4,412.6,171.1,411.7,171.1Z" transform="translate(-4.8 -1.8)"/><path class="cls-1" d="M1100.8,304.2c.4.2.5.3.6.3,5.4.4,5.4.4,5.4,5.8,0,2.9-.1,5.7,0,8.6.1,2.2-.6,3.2-2.9,2.9-.9-.1-1.8,0-3.1,0v34.4a3.51,3.51,0,0,0,1.7,3.5,6.27,6.27,0,0,1,1,9.4,6.54,6.54,0,0,1-9.6,0,6.19,6.19,0,0,1,1-9.4,3.69,3.69,0,0,0,1.7-3.5c-.1-6.7,0-13.4-.3-20.2a60.4,60.4,0,0,1-17.3,21.2,57.91,57.91,0,0,1-25.5,11v4.7c.1,1.4-.5,2.2-2,2.1h-13.2c-1.5,0-2.1-.6-2.1-2.1s0-3,0-4.5c-25.5-5.6-41.2-21-47.1-46.6-.6,0-1.4-.1-2.2-.1-5,0-4.5.5-4.5-4.7,0-3.3.1-6.6,0-9.9-.1-2,.6-2.8,2.6-2.6a5.65,5.65,0,0,0,1.3,0c2,.3,2.8-.3,3.3-2.6a56.07,56.07,0,0,1,44.8-44.6c1.8-.3,2.4-.8,2.4-2.7-.1-4.8-.6-4.5,4.4-4.5,3.4,0,6.8.1,10.2,0,2.1-.1,2.7.7,2.6,2.7-.1,1.3,0,2.7,0,4.2,19.3,3.9,33.3,14.6,42.5,32.1,0-6.5,0-13-.1-19.4,0-.6-.8-1.3-1.4-1.7-2.5-1.9-3.5-4.6-2.6-7.3a6.3,6.3,0,0,1,6-4.5,6.54,6.54,0,0,1,6.3,4.6c.9,2.7-.1,5.3-2.6,7.3a3.21,3.21,0,0,0-1.3,2ZM994.5,322c3.8,23,24.1,39.2,41.8,40.9a12.05,12.05,0,0,0,0-1.9c-.4-2.7.8-3.5,3.3-3.3s5.2,0,7.8,0c5.6,0,5.6,0,6.3,5.2,19.4-1.9,39.1-21.4,41.5-41.2a28,28,0,0,0-2.9,0c-2.1.2-2.9-.5-2.8-2.7.2-3,0-6.1,0-9.1,0-5.1,0-5.1,5.2-5.4a2.12,2.12,0,0,0,.7-.3c-2.8-21.7-22.1-39.5-41.2-41.8,0,.5-.1,1.1-.1,1.6.4,2.7-.6,3.7-3.4,3.5s-5.4-.1-8.1-.1c-5.3,0-5.3,0-5.9-5a.35.35,0,0,0-.1-.2c-21.2,2.6-39.7,21.7-42.1,42.2a14.77,14.77,0,0,0,2.1.1c2.5-.3,3.4.6,3.2,3.1-.2,2.9,0,5.7,0,8.6C999.7,321.4,999.7,321.4,994.5,322Zm46.1,48.6h8.4v-8.2h-8.4ZM1094,309v8.4h8.2V309Zm-98.7.1h-8.4v8.2h8.4Zm54.3-54.4h-8.3V263h8.3Z" transform="translate(-4.8 -1.8)"/><path class="cls-1" d="M950.7,361.2v11.6c0,4.6-2.6,7.1-7.2,7.1H920.1c-4.4,0-7-2.6-7-7V349.3c0-4.4,2.7-7,7.1-7h23.6c4.2,0,6.8,2.7,6.9,6.9v12Zm-4.3-.3c0-3.7-.1-7.4,0-11,.1-2.4-.8-3.4-3.3-3.4-7.5.1-15.1.1-22.6,0-2.3,0-3.2.9-3.2,3.2.1,7.5.1,15.1,0,22.6,0,2.2.8,3.3,3.2,3.3,7.6-.1,15.2,0,22.9,0,2.2,0,3.1-.9,3.1-3.1C946.4,368.7,946.4,364.8,946.4,360.9Z" transform="translate(-4.8 -1.8)"/><path class="cls-1" d="M950.7,264.4V276c0,4.4-2.6,7.1-7,7.1H920.1c-4.4,0-7-2.6-7-7V252.5c0-4.3,2.6-6.9,6.8-6.9,8-.1,15.9,0,23.9,0,4.2,0,6.8,2.7,6.9,6.9Zm-19.1,14.3c3.9,0,7.7-.1,11.6,0,2.3,0,3.2-.9,3.2-3.2-.1-7.5-.1-15.1,0-22.6,0-2.2-.8-3.3-3.1-3.3-7.6.1-15.2,0-22.9,0-2.2,0-3.1.9-3.1,3.1,0,7.6.1,15.2,0,22.9,0,2.3,1,3.2,3.3,3.2C924.3,278.7,927.9,278.7,931.6,278.7Z" transform="translate(-4.8 -1.8)"/><path class="cls-1" d="M931.7,331.5H919.9c-4.2-.1-6.8-2.7-6.9-6.9V300.7c0-4.1,2.7-6.8,6.7-6.8,8.1-.1,16.1-.1,24.2,0,4.1,0,6.7,2.7,6.7,6.8.1,8,0,15.9,0,23.9,0,4.3-2.6,6.9-6.9,6.9Zm-.1-4.3h11.8c2,0,3-.9,3-2.9V300.9c0-1.9-.9-2.8-2.8-2.8H920.2c-1.9,0-2.8.9-2.8,2.8v23.4c0,2,1,2.9,3,2.9C924.1,327.1,927.8,327.2,931.6,327.2Z" transform="translate(-4.8 -1.8)"/><path class="cls-1" d="M554.7,425.9a12.1,12.1,0,1,1-24.2-.1,12.3,12.3,0,0,1,12-12A12.1,12.1,0,0,1,554.7,425.9Zm-12,7.8a7.75,7.75,0,1,0-7.9-7.8A7.84,7.84,0,0,0,542.7,433.7Z" transform="translate(-4.8 -1.8)"/><path class="cls-1" d="M146.1,388.3c.6-2,1.1-3.6,1.6-5.1,6.6-19.7,13.1-39.3,19.7-59a1.09,1.09,0,0,0,.1-.5c.6-1.6,1.2-3.5,3.5-2.7s1.7,2.6,1.1,4.3c-6.9,20.8-13.9,41.5-20.8,62.3-.2.6-.3,1.4-.7,1.7-.8.5-1.9,1.2-2.7,1S146.6,388.9,146.1,388.3Z" transform="translate(-4.8 -1.8)"/><path class="cls-1" d="M201.1,355.5c-6.4-5.7-12.5-11.1-18.6-16.6-.8-.7-1.9-1.3-2.3-2.2a10.46,10.46,0,0,1-.5-3.6c1.2,0,2.8-.5,3.6.1,2.8,2.2,5.4,4.7,8.1,7,4.8,4.2,9.5,8.4,14.2,12.7,2.2,2,2.3,3.1,0,5-7.3,6.5-14.6,13-21.8,19.5-1.2,1.1-2.6,2-4,.5s-.6-2.9.8-4.1c6.2-5.5,12.3-11,18.4-16.4A27.58,27.58,0,0,0,201.1,355.5Z" transform="translate(-4.8 -1.8)"/><path class="cls-1" d="M117.8,355.4c6.9,6.1,13.2,11.7,19.4,17.3.6.5,1.2,1.1,1.8,1.6,1.2,1.1,1.7,2.7.3,3.7a3.94,3.94,0,0,1-3.5-.2c-3.3-2.6-6.4-5.5-9.5-8.3-4.2-3.8-8.4-7.5-12.6-11.3-2.3-2.1-2.3-3.2-.1-5.2l21.5-19.1c1.4-1.2,2.9-2.3,4.4-.6s.1,3.1-1.2,4.3c-6.2,5.5-12.4,11.1-18.7,16.6C119.2,354.5,118.6,354.8,117.8,355.4Z" transform="translate(-4.8 -1.8)"/><path class="cls-1" d="M244.4,426.7A10.18,10.18,0,0,1,254.5,437a10.2,10.2,0,1,1-10.1-10.3Zm5.8,10.1a6.1,6.1,0,0,0-5.9-5.8,6,6,0,0,0-5.9,6,6.1,6.1,0,0,0,5.9,5.8A6,6,0,0,0,250.2,436.8Z" transform="translate(-4.8 -1.8)"/><path class="cls-1" d="M282,427.2H266.7c-1.6,0-3.3,0-3.4-2.1s1.6-2.2,3.3-2.2h30.9c1.6,0,3.3.1,3.3,2.2s-1.8,2.1-3.4,2.1Z" transform="translate(-4.8 -1.8)"/><path class="cls-1" d="M277,434.8c3.4,0,6.8-.2,10.2.1,1,.1,1.9,1.3,2.9,2-.9.7-1.8,2.1-2.8,2.1-7,.2-14.1.2-21.1,0-1,0-1.9-1.3-2.9-2,.9-.7,1.8-2,2.8-2.1C269.6,434.6,273.3,434.8,277,434.8Z" transform="translate(-4.8 -1.8)"/><path class="cls-1" d="M271.2,450.9a34.71,34.71,0,0,1-5.6-.1c-.9-.1-1.6-1.3-2.4-2,.8-.7,1.6-2.1,2.5-2.1a104.61,104.61,0,0,1,11.2,0c.8,0,1.6,1.3,2.4,2-.8.7-1.5,2-2.5,2.1A34.71,34.71,0,0,1,271.2,450.9Z" transform="translate(-4.8 -1.8)"/><path class="cls-1" d="M922.7,189a4.85,4.85,0,0,1-4.8,4.7,4.79,4.79,0,0,1-4.8-5,4.8,4.8,0,1,1,9.6.3Z" transform="translate(-4.8 -1.8)"/><path class="cls-1" d="M896.9,188.7a4.78,4.78,0,0,1,4.9-4.6,4.81,4.81,0,1,1-.4,9.6A4.79,4.79,0,0,1,896.9,188.7Z" transform="translate(-4.8 -1.8)"/><path class="cls-1" d="M890.4,189a4.85,4.85,0,0,1-5,4.8,4.78,4.78,0,0,1-4.6-4.9,4.85,4.85,0,0,1,5-4.8A4.78,4.78,0,0,1,890.4,189Z" transform="translate(-4.8 -1.8)"/><path class="cls-1" d="M436.9,20a4.85,4.85,0,0,1-5,4.8,4.78,4.78,0,0,1-4.6-4.9,4.85,4.85,0,0,1,5-4.8A4.92,4.92,0,0,1,436.9,20Z" transform="translate(-4.8 -1.8)"/><path class="cls-1" d="M420.8,20a4.85,4.85,0,0,1-5,4.8,4.78,4.78,0,0,1-4.6-4.9,4.85,4.85,0,0,1,5-4.8A4.92,4.92,0,0,1,420.8,20Z" transform="translate(-4.8 -1.8)"/><path class="cls-1" d="M404.6,20a4.85,4.85,0,0,1-5,4.8,4.94,4.94,0,0,1-4.7-4.9,4.85,4.85,0,1,1,9.7.1Z" transform="translate(-4.8 -1.8)"/><path class="cls-1" d="M267.7,535.8a6.15,6.15,0,1,1-.1-12.3,6.15,6.15,0,0,1,.1,12.3Z" transform="translate(-4.8 -1.8)"/></svg>