<svg id="Layer_1" data-name="Layer 1" xmlns="http://www.w3.org/2000/svg" viewBox="0 0 48 48"><defs><style>.cls-1{fill:#2b88d9;fill-rule:evenodd;}</style></defs><title>designer</title><path class="cls-1" d="M39.93,44.07l4.2-4.2,1.26,5.46-5.46-1.26ZM25.62,30.33,24,28.74,19.26,24l-1.59-1.59L7.82,12.53l4.77-4.78,9.85,9.85L24,19.19,28.81,24l1.59,1.59L42.83,38l-4.78,4.77ZM9.85,42.92,6.08,44.54,3.46,41.92l1.62-3.77L17.67,25.56l4.77,4.77ZM3,7.75a1.13,1.13,0,0,1,0-1.59L6.23,3A1.12,1.12,0,0,1,7.81,3h0L11,6.16,6.23,10.94,3,7.75ZM37.4,5.83l4.77,4.78L30.4,22.38,25.63,17.6,37.4,5.83Zm6-3.58s0,0,0,0l2.37,2.38h0L42.57,7.82,40.18,5.44l3.18-3.19ZM46,38,32,24l9.35-9.35.88.87a1.13,1.13,0,0,1,0,1.6L37.8,21.5a1.13,1.13,0,0,0,1.59,1.59l4.42-4.41a3.38,3.38,0,0,0,0-4.78h0L42.93,13l.83-.83,1.59-1.59-1.19-1.2,3.18-3.18a2.25,2.25,0,0,0,0-3.18h0L45,.67a2.25,2.25,0,0,0-3.18,0h0L38.59,3.84l-1.2-1.19L35.8,4.24h0L24,16,9.4,1.38a3.36,3.36,0,0,0-4.76,0h0L1.46,4.57a3.37,3.37,0,0,0,0,4.77l3.19,3.19.3.3,1.29,1.29L16.08,24,3.18,36.86.79,42.43,2.39,44,0,46.41,1.59,48,4,45.61,5.57,47.2l5.57-2.38L24,31.92,36.46,44.35l1.59,1.59,8.15,1.89c1.2.27,2-.48,1.69-1.69L46,38Z" transform="translate(0 0)"/></svg>